<?xml version="1.0" encoding="utf-8"?>
<!-- Generated by IcoMoon.io -->
<svg version="1.1" xmlns="http://www.w3.org/2000/svg" xmlns:xlink="http://www.w3.org/1999/xlink" width="32" height="65" viewBox="0 0 32 65">
<svg id="icon-phone"  viewBox="0 0 32 32" x="0" y="0">
<path d="M22 20c-2 2-2 4-4 4s-4-2-6-4-4-4-4-6 2-2 4-4-4-8-6-8-6 6-6 6c0 4 4.109 12.109 8 16s12 8 16 8c0 0 6-4 6-6s-6-8-8-6z"></path>
</svg> 
<svg id="icon-user-tie"  viewBox="0 0 32 32" x="0" y="33">
<path d="M10 6c0-3.314 2.686-6 6-6s6 2.686 6 6c0 3.314-2.686 6-6 6s-6-2.686-6-6zM24.002 14h-1.107l-6.222 12.633 2.327-11.633-3-3-3 3 2.327 11.633-6.222-12.633h-1.107c-3.998 0-3.998 2.687-3.998 6v10h24v-10c0-3.313 0-6-3.998-6z"></path>
</svg>
</svg>
